<svg xmlns="http://www.w3.org/2000/svg" xmlns:xlink="http://www.w3.org/1999/xlink" width="1920mm" height="1080mm" viewBox="0 0 1920 1080"><defs><linearGradient id="a"><stop offset="0" stop-color="#9d8d49"/><stop offset=".334" stop-color="#f9db75"/><stop offset="1" stop-color="#43793c"/></linearGradient><linearGradient xlink:href="#a" id="c" x1="-61.467" x2="1920" y1="109.734" y2="970.266" gradientTransform="matrix(1.0089 0 0 1.0089 -8.544 -4.806)" gradientUnits="userSpaceOnUse"/><linearGradient xlink:href="#b" id="d" x1="142.17" x2="149.973" y1="99.82" y2="92.049" gradientTransform="matrix(6.36577 0 0 6.36577 940.029 417.372)" gradientUnits="userSpaceOnUse"/><linearGradient id="b"><stop offset="0" stop-color="#146625"/><stop offset="1" stop-color="#146625" stop-opacity=".34"/></linearGradient><linearGradient xlink:href="#b" id="e" x1="142.17" x2="149.973" y1="99.82" y2="92.049" gradientTransform="matrix(6.36577 0 0 6.36577 896.776 430.288)" gradientUnits="userSpaceOnUse"/><linearGradient xlink:href="#b" id="f" x1="142.17" x2="149.973" y1="99.82" y2="92.049" gradientTransform="matrix(6.36577 0 0 6.36577 839.106 360.904)" gradientUnits="userSpaceOnUse"/><linearGradient xlink:href="#b" id="g" x1="142.17" x2="149.973" y1="99.82" y2="92.049" gradientTransform="matrix(6.36577 0 0 6.36577 765.968 417.222)" gradientUnits="userSpaceOnUse"/><linearGradient xlink:href="#b" id="h" x1="142.17" x2="149.973" y1="99.82" y2="92.049" gradientTransform="matrix(6.36577 0 0 6.36577 665.046 395.596)" gradientUnits="userSpaceOnUse"/><linearGradient xlink:href="#b" id="i" x1="142.17" x2="149.973" y1="99.82" y2="92.049" gradientTransform="matrix(6.36577 0 0 6.36577 542.497 411.214)" gradientUnits="userSpaceOnUse"/><linearGradient xlink:href="#b" id="j" x1="142.17" x2="149.973" y1="99.82" y2="92.049" gradientTransform="matrix(6.36577 0 0 6.36577 932.97 327.113)" gradientUnits="userSpaceOnUse"/><linearGradient xlink:href="#b" id="k" x1="142.17" x2="149.973" y1="99.82" y2="92.049" gradientTransform="matrix(6.36577 0 0 6.36577 866.89 239.406)" gradientUnits="userSpaceOnUse"/><linearGradient xlink:href="#b" id="l" x1="142.17" x2="149.973" y1="99.82" y2="92.049" gradientTransform="matrix(6.36577 0 0 6.36577 942.582 160.11)" gradientUnits="userSpaceOnUse"/><linearGradient xlink:href="#b" id="m" x1="142.17" x2="149.973" y1="99.82" y2="92.049" gradientTransform="matrix(6.36577 0 0 6.36577 913.747 -111.419)" gradientUnits="userSpaceOnUse"/><linearGradient xlink:href="#b" id="n" x1="142.17" x2="149.973" y1="99.82" y2="92.049" gradientTransform="matrix(6.36577 0 0 6.36577 872.897 -223.154)" gradientUnits="userSpaceOnUse"/><linearGradient xlink:href="#b" id="o" x1="142.17" x2="149.973" y1="99.82" y2="92.049" gradientTransform="matrix(6.36577 0 0 6.36577 943.19 -338.942)" gradientUnits="userSpaceOnUse"/><linearGradient xlink:href="#b" id="p" x1="142.17" x2="149.973" y1="99.82" y2="92.049" gradientTransform="matrix(6.36577 0 0 6.36577 -899.308 433.41)" gradientUnits="userSpaceOnUse"/><linearGradient xlink:href="#b" id="q" x1="142.17" x2="149.973" y1="99.82" y2="92.049" gradientTransform="matrix(6.36577 0 0 6.36577 -864.766 437.915)" gradientUnits="userSpaceOnUse"/><linearGradient xlink:href="#b" id="r" x1="142.17" x2="149.973" y1="99.82" y2="92.049" gradientTransform="matrix(6.36577 0 0 6.36577 -879.184 374.237)" gradientUnits="userSpaceOnUse"/><linearGradient xlink:href="#b" id="s" x1="142.17" x2="149.973" y1="99.82" y2="92.049" gradientTransform="matrix(6.36577 0 0 6.36577 -779.463 421.695)" gradientUnits="userSpaceOnUse"/><linearGradient xlink:href="#b" id="t" x1="142.17" x2="149.973" y1="99.82" y2="92.049" gradientTransform="matrix(6.36577 0 0 6.36577 722.465 254.698)" gradientUnits="userSpaceOnUse"/><linearGradient xlink:href="#b" id="u" x1="142.17" x2="149.973" y1="99.82" y2="92.049" gradientTransform="matrix(6.36577 0 0 6.36577 845.651 114.521)" gradientUnits="userSpaceOnUse"/></defs><g paint-order="fill markers stroke"><rect width="1937.087" height="1089.612" x="-8.544" y="-4.806" fill="url(#c)" ry=".07"/><path fill="url(#d)" stroke="#146625" stroke-width="4" d="M1843.192 1001.23h53.497v53.497h-53.497z"/><path fill="url(#e)" stroke="#146625" stroke-width="4" d="M1809.71 1023.915h43.727v43.727h-43.727z"/><path fill="url(#f)" stroke="#146625" stroke-width="4" d="M1755.438 957.929h40.328v40.328h-40.328z"/><path fill="url(#g)" stroke="#146625" stroke-width="4" d="M1669.131 1001.08h53.497v53.497h-53.497z"/><path fill="url(#h)" stroke="#146625" stroke-width="4" d="M1575.005 986.25h46.7v46.7h-46.7z"/><path fill="url(#i)" stroke="#146625" stroke-width="4" d="M1461.802 1011.214h37.355v37.355h-37.355z"/><path fill="url(#j)" stroke="#146625" stroke-width="4" d="M1859.921 934.758h29.709v29.709h-29.709z"/><path fill="url(#k)" stroke="#146625" stroke-width="4" d="M1770.054 823.264h53.497v53.497h-53.497z"/><path fill="url(#l)" stroke="#146625" stroke-width="4" d="M1869.958 768.18h29.284v29.284h-29.284z"/><path fill="url(#m)" stroke="#146625" stroke-width="4" d="M1838.149 493.678h32.258v32.258h-32.258z"/><path fill="url(#n)" stroke="#146625" stroke-width="4" d="M1788.804 373.447h40.753V414.2h-40.753z"/><path fill="url(#o)" stroke="#146625" stroke-width="4" d="M1874.813 273.376h25.036v25.036h-25.036z"/><path fill="url(#p)" stroke="#146625" stroke-width="4" d="M3.855 1017.267h53.497v53.497H3.855z"/><path fill="url(#q)" stroke="#146625" stroke-width="4" d="M48.609 1031.985h43.284v43.284H48.609z"/><path fill="url(#r)" stroke="#146625" stroke-width="4" d="M46.507 980.622h30.969v30.969H46.507z"/><path fill="url(#s)" stroke="#146625" stroke-width="4" d="M149.532 1031.384h27.665v27.665h-27.665z"/><path fill="url(#t)" stroke="#146625" stroke-width="4" d="M1644.744 857.671h34.382v34.382h-34.382z"/><path fill="url(#u)" stroke="#146625" stroke-width="4" d="M1767.08 716.645h35.231v35.231h-35.231z"/></g></svg>