<svg xmlns="http://www.w3.org/2000/svg" width="50mm" height="50mm" viewBox="0 0 50 50"><defs><linearGradient id="a"><stop offset="0" stop-color="#146625"/><stop offset="1" stop-color="#146625" stop-opacity=".34"/></linearGradient><path id="b" d="M21.85 161.5h150.84v137.16H21.85z"/></defs><path d="M28.49 31.83h-4.28l-2.96-8.42H8.18l-2.96 8.42H1.14l11-30.21h5.35Zm-8.48-11.87-5.3-14.83L9.4 19.96Z" style="font-size:29.3333px;-inkscape-font-specification:&quot;sans-serif, Normal&quot;;white-space:pre;shape-inside:url(#b);display:inline;fill:#146625;stroke-width:2.67673;paint-order:fill markers stroke;stop-color:#000"/><path d="M31.75 17.54c-2.45 0-4.72.5-6.78 1.51l2.08 5.71h.03a.5.5 0 0 1 .23.06l3.33 1.95 6.79 3.89 3.39 1.95c.18.1.28.27.28.5 0 .22-.1.39-.28.5L27.3 41.39a.62.62 0 0 1-.28.06c-.37 0-.56-.19-.56-.56v-8h-2.56v9.61a12.27 12.27 0 0 1-2.61-15.75l-.8-2.29h-1.74a14.96 14.96 0 0 0-2.52 7.42c-.03 2.6-.1-.06 0 2.45.3 4 1.93 7.4 4.9 10.18 3 2.78 6.54 4.17 10.61 4.17 4.08 0 7.6-1.4 10.57-4.17 3-2.78 4.65-6.18 4.95-10.18-.03-2.36.09.07 0-2.45-.3-4-1.95-7.4-4.95-10.17a14.92 14.92 0 0 0-10.57-4.17zm0 3.33c3.08 0 5.77 1.02 8.07 3.06 2.3 2 3.65 4.5 4.06 7.5l-16.74-9.67c1.48-.6 3.02-.89 4.61-.89zm12.13 13.9c-.41 3-1.76 5.53-4.06 7.57-2.3 2-4.99 3-8.07 3-1.59 0-3.13-.3-4.61-.89l16.74-9.68z" style="font-size:7.7611px;font-family:sàia;-inkscape-font-specification:&quot;sàia, Normal&quot;;display:inline;fill:#146625;stroke:#146625;stroke-width:0;paint-order:fill markers stroke;stop-color:#000"/></svg>