<svg xmlns="http://www.w3.org/2000/svg" width="50mm" height="50mm" viewBox="0 0 50 50"><defs><linearGradient id="a"><stop offset="0" stop-color="#146625"/><stop offset="1" stop-color="#146625" stop-opacity=".34"/></linearGradient></defs><path d="M14.7 15.8q-.25 0-.25.37v5.28q-2.17 1.26-3.54 3.4-1.37 2.09-1.55 4.62h-.04v1.6h.04q.18 2.52 1.55 4.65 1.37 2.1 3.54 3.36v5.28q0 .36.26.36h1.04q.26 0 .26-.36v-4.59q1.26.47 2.6.58v.03l.04-.03q.43.03.79.03 3.98 0 6.87-2.7 2.92-2.72 3.21-6.62h.04v-1.59h-.04q-.29-3.9-3.21-6.61-2.9-2.71-6.87-2.71-.36 0-.8.03l-.03-.03v.03q-1.34.11-2.6.58v-4.59q0-.36-.26-.36zm3.9 6.55v7.12H16v-6.4q1.24-.57 2.6-.72zm2.47.15q2.24.43 3.86 2.02 1.67 1.59 2.2 3.83zm-6.62 1.55v5.42h-2.92q.32-3.32 2.92-5.42zm6.18.32q.18 0 .3.11l5.23 4.99h-5.92v-4.7q0-.18.1-.29.15-.1.3-.1zm-9.1 6.7h2.92v5.41q-2.6-2.1-2.92-5.42zm4.48 0h2.6v7.11q-1.37-.14-2.6-.72Zm4.23 0h5.92l-5.27 4.98q-.18.18-.44.07-.21-.1-.21-.36zm6.9 1.11q-.54 2.24-2.2 3.83-1.63 1.6-3.87 2.03z" aria-label="" style="font-size:36.1412px;font-family:sàia;-inkscape-font-specification:&quot;sàia, Normal&quot;;fill:#146625;stroke-width:0;paint-order:fill markers stroke;stop-color:#000" transform="matrix(1.48 0 0 1.48 -3.65 -16.03)"/><g aria-label="sàia" style="font-size:7.7611px;font-family:Calibri;-inkscape-font-specification:&quot;Calibri, Normal&quot;;fill:#146625;stroke-width:0;paint-order:fill markers stroke;stop-color:#000"><path d="M26 10.8q0 .08-.07.13-.05.04-.16.06-.1.02-.3.02-.18 0-.3-.02-.11-.02-.16-.06-.05-.05-.05-.13v-.66q-.43.46-.97.71-.52.26-1.11.26-.52 0-.94-.14-.42-.13-.72-.39-.3-.25-.46-.62-.16-.38-.16-.85 0-.55.23-.96.22-.41.65-.68.42-.27 1.03-.4.62-.14 1.38-.14h.9v-.51q0-.38-.07-.67-.08-.3-.27-.49-.17-.2-.46-.29-.28-.1-.7-.1-.44 0-.8.11-.35.1-.62.23-.26.13-.44.24-.18.1-.27.1-.06 0-.1-.03l-.08-.09q-.03-.06-.04-.14l-.02-.2q0-.19.02-.3.03-.1.13-.2t.34-.22q.24-.13.56-.23.3-.1.68-.17.37-.08.75-.08.71 0 1.2.16.5.16.8.48.32.3.45.76.14.46.14 1.08zm-1.2-3h-1.03q-.5 0-.86.08-.37.08-.6.25-.25.16-.37.4-.1.22-.1.52 0 .51.32.82.32.3.9.3.48 0 .88-.24.41-.24.86-.74zm-.76-5.1q.06.08.07.13.02.06-.03.1-.04.04-.13.06-.09.02-.25.02h-.24l-.17-.04q-.06-.03-.11-.08-.05-.04-.1-.11l-1.33-1.7Q21.7 1 21.7.95q0-.06.04-.1.05-.06.18-.08.13-.03.33-.03.18 0 .3.02.12.01.2.04.08.03.14.08.06.05.11.13zm-3.31 1.33zM29.4 10.79q0 .06-.02.1-.03.04-.1.07-.06.03-.18.04l-.3.01-.29-.01q-.12-.01-.19-.04l-.1-.07q-.02-.04-.02-.1V4.22q0-.05.03-.1.03-.04.1-.07.06-.03.18-.04l.3-.01.3.01q.1.01.17.04t.1.08q.03.04.03.1zM29.56 2q0 .43-.16.58-.16.15-.6.15-.42 0-.58-.14-.15-.16-.15-.57 0-.43.16-.58.16-.15.59-.15.42 0 .58.15.16.15.16.56z"/></g></svg>