<svg xmlns="http://www.w3.org/2000/svg" xmlns:xlink="http://www.w3.org/1999/xlink" width="159.3mm" height="100.3mm" viewBox="0 0 159.3 100.3"><defs><linearGradient id="a"><stop offset="0" stop-color="#146625"/><stop offset="1" stop-color="#146625" stop-opacity=".34"/></linearGradient><linearGradient xlink:href="#a" id="b" x1="140.177" x2="152.619" y1="102.492" y2="90.841" gradientTransform="translate(27.3 10.232) scale(.80317)" gradientUnits="userSpaceOnUse"/><linearGradient xlink:href="#a" id="c" x1="145.03" x2="152.718" y1="102.598" y2="94.854" gradientTransform="translate(9.234 14.436) scale(.80317)" gradientUnits="userSpaceOnUse"/><linearGradient xlink:href="#a" id="d" x1="138.607" x2="146.318" y1="96.267" y2="88.594" gradientTransform="translate(-6.945 19.02) scale(.80317)" gradientUnits="userSpaceOnUse"/><linearGradient xlink:href="#a" id="e" x1="139.025" x2="152.322" y1="101.899" y2="89.129" gradientTransform="translate(34.548 16.28) scale(.80317)" gradientUnits="userSpaceOnUse"/><linearGradient xlink:href="#a" id="f" x1="144.215" x2="152.741" y1="102.691" y2="94.226" gradientTransform="translate(-95.384 15.706) scale(.80317)" gradientUnits="userSpaceOnUse"/><linearGradient xlink:href="#a" id="g" x1="146.799" x2="152.578" y1="102.76" y2="96.949" gradientTransform="translate(-114.855 -9.237) scale(.80317)" gradientUnits="userSpaceOnUse"/><linearGradient xlink:href="#a" id="h" x1="144.122" x2="152.765" y1="102.9" y2="94.203" gradientTransform="translate(-105.894 6.28) scale(.80317)" gradientUnits="userSpaceOnUse"/><linearGradient xlink:href="#a" id="i" x1="138.769" x2="150.344" y1="100.317" y2="88.617" gradientTransform="translate(-109.774 17.877) scale(.80317)" gradientUnits="userSpaceOnUse"/><linearGradient xlink:href="#a" id="j" x1="138.839" x2="147.761" y1="97.617" y2="88.64" gradientTransform="translate(-76.834 16.941) scale(.80317)" gradientUnits="userSpaceOnUse"/><linearGradient xlink:href="#a" id="k" x1="144.555" x2="152.487" y1="102.623" y2="94.428" gradientTransform="translate(-74.196 16.014) scale(.80317)" gradientUnits="userSpaceOnUse"/><linearGradient xlink:href="#a" id="l" x1="146.799" x2="152.578" y1="102.76" y2="96.949" gradientTransform="translate(-103.928 -5.946) scale(.80317)" gradientUnits="userSpaceOnUse"/><linearGradient xlink:href="#a" id="m" x1="146.799" x2="152.578" y1="102.76" y2="96.949" gradientTransform="translate(32.86 -6.604) scale(.80317)" gradientUnits="userSpaceOnUse"/><linearGradient xlink:href="#a" id="n" x1="146.799" x2="152.578" y1="102.76" y2="96.949" gradientTransform="translate(-.976 7.22) scale(.80317)" gradientUnits="userSpaceOnUse"/></defs><path fill="url(#b)" stroke="#146625" stroke-width="1.606" d="M139.543 82.188h11.261v11.261h-11.261z" paint-order="fill markers stroke"/><path fill="url(#c)" stroke="#146625" stroke-width="1.606" d="M124.967 89.881h7.772v7.772h-7.772z" paint-order="fill markers stroke"/><path fill="url(#d)" stroke="#146625" stroke-width="1.606" d="M103.658 89.337h7.719v7.719h-7.719z" paint-order="fill markers stroke"/><path fill="url(#e)" stroke="#146625" stroke-width="1.606" d="M145.152 86.597h12.9v12.9h-12.9z" paint-order="fill markers stroke"/><path fill="url(#f)" stroke="#146625" stroke-width="1.606" d="M19.661 90.464h8.459v8.459h-8.459z" paint-order="fill markers stroke"/><path fill="url(#g)" stroke="#146625" stroke-width="1.606" d="M2.41 67.742h6.239v6.239H2.41z" paint-order="fill markers stroke"/><path fill="url(#h)" stroke="#146625" stroke-width="1.606" d="M9.151 81.039h8.459v8.459H9.151z" paint-order="fill markers stroke"/><path fill="url(#i)" stroke="#146625" stroke-width="1.606" d="M.83 88.194h10.997v10.997H.83z" paint-order="fill markers stroke"/><path fill="url(#j)" stroke="#146625" stroke-width="1.606" d="M33.77 87.258h8.882v8.882H33.77z" paint-order="fill markers stroke"/><path fill="url(#k)" stroke="#146625" stroke-width="1.606" d="M41.06 90.984h8.248v8.248H41.06z" paint-order="fill markers stroke"/><path fill="url(#l)" stroke="#146625" stroke-width="1.606" d="M13.337 71.033h6.239v6.239h-6.239z" paint-order="fill markers stroke"/><path fill="url(#m)" stroke="#146625" stroke-width="1.606" d="M150.125 70.375h6.239v6.239h-6.239z" paint-order="fill markers stroke"/><path fill="url(#n)" stroke="#146625" stroke-width="1.606" d="M116.29 84.198h6.239v6.239h-6.239z" paint-order="fill markers stroke"/></svg>