<svg xmlns="http://www.w3.org/2000/svg" xmlns:xlink="http://www.w3.org/1999/xlink" width="159.3mm" height="100.3mm" viewBox="0 0 159.3 100.3"><defs><linearGradient id="a"><stop offset="0" stop-color="#146625"/><stop offset="1" stop-color="#146625" stop-opacity=".34"/></linearGradient><linearGradient xlink:href="#a" id="b" x1="140.177" x2="152.619" y1="102.492" y2="90.841" gradientTransform="translate(21.244 9.705) scale(.80317)" gradientUnits="userSpaceOnUse"/><linearGradient xlink:href="#a" id="c" x1="145.03" x2="152.718" y1="102.598" y2="94.854" gradientTransform="translate(11.867 14.304) scale(.80317)" gradientUnits="userSpaceOnUse"/><linearGradient xlink:href="#a" id="d" x1="138.607" x2="146.318" y1="96.267" y2="88.594" gradientTransform="translate(6.746 21.258) scale(.80317)" gradientUnits="userSpaceOnUse"/><linearGradient xlink:href="#a" id="e" x1="142.317" x2="152.619" y1="102.558" y2="92.486" gradientTransform="translate(30.041 3.164) scale(.80317)" gradientUnits="userSpaceOnUse"/><linearGradient xlink:href="#a" id="f" x1="139.025" x2="152.322" y1="101.899" y2="89.129" gradientTransform="translate(34.548 16.28) scale(.80317)" gradientUnits="userSpaceOnUse"/><linearGradient xlink:href="#a" id="g" x1="138.795" x2="149.229" y1="99.2" y2="88.504" gradientTransform="translate(-10.922 16.48) scale(.80317)" gradientUnits="userSpaceOnUse"/><linearGradient xlink:href="#a" id="h" x1="144.215" x2="152.741" y1="102.691" y2="94.226" gradientTransform="translate(-79.454 12.81) scale(.80317)" gradientUnits="userSpaceOnUse"/><linearGradient xlink:href="#a" id="i" x1="146.799" x2="152.578" y1="102.76" y2="96.949" gradientTransform="translate(-96.16 15.909) scale(.80317)" gradientUnits="userSpaceOnUse"/><linearGradient xlink:href="#a" id="j" x1="144.122" x2="152.765" y1="102.9" y2="94.203" gradientTransform="translate(-104.71 7.992) scale(.80317)" gradientUnits="userSpaceOnUse"/><linearGradient xlink:href="#a" id="k" x1="138.769" x2="150.344" y1="100.317" y2="88.617" gradientTransform="translate(-109.774 17.877) scale(.80317)" gradientUnits="userSpaceOnUse"/><linearGradient xlink:href="#a" id="l" x1="138.839" x2="147.761" y1="97.617" y2="88.64" gradientTransform="translate(-109.089 3.644) scale(.80317)" gradientUnits="userSpaceOnUse"/><linearGradient xlink:href="#a" id="m" x1="144.555" x2="152.487" y1="102.623" y2="94.428" gradientTransform="translate(-106.188 -8.473) scale(.80317)" gradientUnits="userSpaceOnUse"/></defs><path fill="url(#b)" stroke="#146625" stroke-width="1.606" d="M133.487 81.661h11.261v11.261h-11.261z" paint-order="fill markers stroke"/><path fill="url(#c)" stroke="#146625" stroke-width="1.606" d="M127.6 89.75h7.772v7.772H127.6z" paint-order="fill markers stroke"/><path fill="url(#d)" stroke="#146625" stroke-width="1.606" d="M117.35 91.575h7.719v7.719h-7.719z" paint-order="fill markers stroke"/><path fill="url(#e)" stroke="#146625" stroke-width="1.606" d="M143.659 76.494h9.887v9.887h-9.887z" paint-order="fill markers stroke"/><path fill="url(#f)" stroke="#146625" stroke-width="1.606" d="M145.152 86.597h12.9v12.9h-12.9z" paint-order="fill markers stroke"/><path fill="url(#g)" stroke="#146625" stroke-width="1.606" d="M99.682 86.798h10.098v10.098H99.682z" paint-order="fill markers stroke"/><path fill="url(#h)" stroke="#146625" stroke-width="1.606" d="M35.591 87.567h8.459v8.459h-8.459z" paint-order="fill markers stroke"/><path fill="url(#i)" stroke="#146625" stroke-width="1.606" d="M21.105 92.887h6.239v6.239h-6.239z" paint-order="fill markers stroke"/><path fill="url(#j)" stroke="#146625" stroke-width="1.606" d="M10.336 82.75h8.459v8.459h-8.459z" paint-order="fill markers stroke"/><path fill="url(#k)" stroke="#146625" stroke-width="1.606" d="M.83 88.194h10.997v10.997H.83z" paint-order="fill markers stroke"/><path fill="url(#l)" stroke="#146625" stroke-width="1.606" d="M1.515 73.961h8.882v8.882H1.515z" paint-order="fill markers stroke"/><path fill="url(#m)" stroke="#146625" stroke-width="1.606" d="M9.069 66.496h8.248v8.248H9.069z" paint-order="fill markers stroke"/></svg>