<svg xmlns="http://www.w3.org/2000/svg" xmlns:xlink="http://www.w3.org/1999/xlink" width="203.841" height="104.281" viewBox="0 0 53.933 27.591"><defs><linearGradient id="a"><stop offset="0" stop-color="#146625"/><stop offset="1" stop-color="#146625" stop-opacity=".34"/></linearGradient><linearGradient xlink:href="#a" id="b" x1="144.215" x2="152.741" y1="102.691" y2="94.226" gradientTransform="translate(-80.788 -58.147) scale(.80317)" gradientUnits="userSpaceOnUse"/><linearGradient xlink:href="#a" id="c" x1="146.799" x2="152.578" y1="102.76" y2="96.949" gradientTransform="translate(-115.014 -76.175) scale(.80317)" gradientUnits="userSpaceOnUse"/><linearGradient xlink:href="#a" id="d" x1="144.122" x2="152.765" y1="102.9" y2="94.203" gradientTransform="translate(-110.002 -64.344) scale(.80317)" gradientUnits="userSpaceOnUse"/><linearGradient xlink:href="#a" id="e" x1="138.769" x2="150.344" y1="100.317" y2="88.617" gradientTransform="translate(-109.8 -54.723) scale(.80317)" gradientUnits="userSpaceOnUse"/><linearGradient xlink:href="#a" id="f" x1="138.839" x2="147.761" y1="97.617" y2="88.64" gradientTransform="translate(-81.525 -56.813) scale(.80317)" gradientUnits="userSpaceOnUse"/><linearGradient xlink:href="#a" id="g" x1="144.555" x2="152.487" y1="102.623" y2="94.428" gradientTransform="translate(-99.237 -57.902) scale(.80317)" gradientUnits="userSpaceOnUse"/><linearGradient xlink:href="#a" id="h" x1="146.799" x2="152.578" y1="102.76" y2="96.949" gradientTransform="translate(-70.374 -56.43) scale(.80317)" gradientUnits="userSpaceOnUse"/></defs><path fill="url(#b)" stroke="#146625" stroke-width="1.606" d="M34.257 16.611h8.459v8.459h-8.459z" paint-order="fill markers stroke"/><path fill="url(#c)" stroke="#146625" stroke-width="1.606" d="M2.252.803h6.239v6.239H2.252z" paint-order="fill markers stroke"/><path fill="url(#d)" stroke="#146625" stroke-width="1.606" d="M5.043 10.414h8.459v8.459H5.043z" paint-order="fill markers stroke"/><path fill="url(#e)" stroke="#146625" stroke-width="1.606" d="M.803 15.594H11.8v10.997H.803z" paint-order="fill markers stroke"/><path fill="url(#f)" stroke="#146625" stroke-width="1.606" d="M29.079 13.504h8.882v8.882h-8.882z" paint-order="fill markers stroke"/><path fill="url(#g)" stroke="#146625" stroke-width="1.606" d="M16.019 17.068h8.248v8.248h-8.248z" paint-order="fill markers stroke"/><path fill="url(#h)" stroke="#146625" stroke-width="1.606" d="M46.891 20.549h6.239v6.239h-6.239z" paint-order="fill markers stroke"/></svg>